<?xml version="1.0" standalone="no"?>
<!DOCTYPE svg PUBLIC "-//W3C//DTD SVG 20010904//EN"
 "http://www.w3.org/TR/2001/REC-SVG-20010904/DTD/svg10.dtd">
<svg version="1.0" xmlns="http://www.w3.org/2000/svg"
 width="300.000000pt" height="300.000000pt" viewBox="0 0 300.000000 300.000000"
 preserveAspectRatio="xMidYMid meet">
<metadata>
Created by potrace 1.14, written by Peter Selinger 2001-2017
</metadata>
<g transform="translate(0.000000,300.000000) scale(0.100000,-0.100000)"
fill="#000000" stroke="none">
<path d="M0 1500 l0 -1500 1500 0 1500 0 0 1500 0 1500 -1500 0 -1500 0 0
-1500z m2510 1066 c-19 -18 -282 -262 -585 -542 -302 -280 -633 -587 -735
-682 l-185 -173 -25 29 c-14 16 -163 182 -332 368 -169 187 -307 343 -308 349
-1 5 74 33 167 61 92 29 301 93 463 144 162 51 365 114 450 140 85 26 288 89
450 140 585 182 665 207 670 203 2 -2 -12 -19 -30 -37z m-154 -1136 c166 -184
303 -339 303 -345 0 -5 -77 -34 -172 -63 -95 -30 -271 -85 -392 -122 -121 -38
-323 -101 -450 -140 -126 -40 -329 -103 -450 -140 -565 -176 -672 -209 -699
-219 -16 -7 -31 -9 -34 -6 -7 7 -26 -10 543 516 263 244 594 551 735 682 l255
237 29 -32 c16 -18 166 -184 332 -368z"/>
</g>
</svg>
